<svg width="658" height="287" viewBox="0 0 658 287" fill="none" xmlns="http://www.w3.org/2000/svg">
<g clip-path="url(#clip0_341_4147)">
<path d="M153.782 73H211.73C212.909 73 213.865 73.9556 213.865 75.1343V163.693C213.865 165.815 211.106 166.637 209.944 164.862L151.996 76.303C151.068 74.8835 152.086 73 153.782 73Z" fill="#246DFF"/>
<path d="M133.083 73H75.1343C73.9556 73 73 73.9556 73 75.1343V163.693C73 165.815 75.7588 166.637 76.9203 164.862L134.869 76.303C135.798 74.8835 134.779 73 133.083 73Z" fill="#20A34E"/>
<path d="M142.439 143.903L76.6101 210.228C75.2733 211.575 76.2273 213.866 78.1249 213.866H208.793C210.683 213.866 211.641 211.591 210.32 210.239L145.48 143.915C144.648 143.063 143.279 143.058 142.439 143.903Z" fill="#F86606"/>
<path d="M525.792 92.3785H501.134C493.419 92.3785 490.113 96.2354 490.113 103.261V110.011L526.04 110.012L546.565 157.399L567.092 110.012H585L542.019 209.059H524.386L537.611 178.477L513.028 124.888H490.113V179.716H472.481V124.888H453.332V110.011H472.481V99.8174C472.481 86.3173 479.919 78.3271 495.761 78.3271H525.792V92.3785Z" fill="#1F2123"/>
<path fill-rule="evenodd" clip-rule="evenodd" d="M385.456 108.497C403.639 108.497 418.517 122.135 418.517 144.865C418.517 167.732 403.639 181.232 385.456 181.232C370.302 181.232 362.725 171.865 361.348 169.11V208.922H343.99V110.012H361.485V121.033C362.725 118.416 370.302 108.497 385.456 108.497ZM380.909 123.926C368.924 123.926 361.21 132.88 361.21 144.865C361.21 156.712 368.924 165.804 380.909 165.804C393.031 165.804 400.746 156.712 400.746 144.865C400.746 132.88 393.031 123.926 380.909 123.926Z" fill="#1F2123"/>
<path fill-rule="evenodd" clip-rule="evenodd" d="M298.259 108.221C319.886 108.221 331.871 119.517 331.871 136.047V159.604C331.871 163.737 333.386 165.665 337.381 165.94V180.129H331.871C323.193 179.991 317.544 176.685 315.616 170.486C312.172 175.445 305.009 181.232 293.024 181.232C276.631 181.232 264.232 171.864 264.232 157.675C264.233 143.624 274.84 136.047 292.059 136.047H314.927C314.927 127.644 308.452 122.272 298.259 122.272C288.616 122.272 284.758 127.506 283.794 129.297H266.023C267.401 121.858 276.356 108.221 298.259 108.221ZM294.952 148.032C286.824 148.032 281.589 151.063 281.589 157.4C281.59 164.15 287.927 168.145 296.743 168.145C306.662 168.144 314.927 163.185 314.927 153.956V148.032H294.952Z" fill="#1F2123"/>
<path d="M444.943 179.716H427.311V110.012H444.943V179.716Z" fill="#1F2123"/>
<path d="M445.218 98.854H426.896V77.915H445.218V98.854Z" fill="#1F2123"/>
</g>
<defs>
<clipPath id="clip0_341_4147">
<rect width="512" height="141" fill="white" transform="translate(73 73)"/>
</clipPath>
</defs>
</svg>
